#!OML:ASF F:\VICON\USERDATA\INSTALL\rory3\rory3.ASF
:FULLY-SPECIFIED
:DEGREES
4446
root -3.80979 18.2449 -0.923499 5.06465 13.0914 -718.235
lowerback 34.6924 -0.114367 0.326489
upperback 5.65489 0.707848 4.64345
thorax -11.4665 0.383143 4.51995
lowerneck -10.603 -1.07663 -1.81944
upperneck 9.87556 -0.0226044 -9.47478
head 4.72288 -0.666706 -2.64504
rclavicle 2.38542e-014 5.08889e-014
rhumerus 6.89373 -1.36187 -70.306
rradius 72.1337
rwrist 14.8608
rhand -15.6266 7.9871
rfingers 7.12502
rthumb 10.5603 -21.7276
lclavicle 2.38542e-014 5.08889e-014
lhumerus -28.2642 -1.79575 89.264
lradius 47.022
lwrist 8.28799
lhand 167.895 -130.134
lfingers 7.12502
lthumb -166.044 3499.38
rfemur -28.9671 -2.74707 12.9107
rtibia 67.5708
rfoot 4.46029 -14.6591
rtoes 15.2881
lfemur -31.3522 1.94183 -23.1527
ltibia 41.1834
lfoot -4.94306 -13.8111
ltoes -21.6394
4447
root -3.85734 18.2764 -1.14433 5.27807 13.8092 -718.403
lowerback 34.4108 -0.0749067 0.656891
upperback 5.61603 0.894136 4.78434
thorax -11.4145 0.460901 4.41756
lowerneck -11.1445 -1.3154 -2.51178
upperneck 10.5958 -0.202863 -8.95648
head 5.03341 -0.788771 -2.3992
rclavicle 1.03368e-014 -4.13472e-014
rhumerus 6.27339 -1.4002 -70.6264
rradius 69.7166
rwrist 15.3917
rhand -19.0037 8.7888
rfingers 7.12502
rthumb 7.3016 -21.0652
lclavicle 1.03368e-014 -4.13472e-014
lhumerus -27.965 -1.43678 89.4023
lradius 46.8066
lwrist 8.38651
lhand 167.975 -130.379
lfingers 7.12502
lthumb -165.967 3499.13
rfemur -26.7331 -2.33136 13.1551
rtibia 66.1903
rfoot 4.24328 -15.856
rtoes 15.6651
lfemur -31.7525 1.40019 -22.116
ltibia 40.8758
lfoot -6.42822 -11.9406
ltoes -22.9744
4448
root -3.89911 18.2954 -1.37306 5.45094 14.519 -718.677
lowerback 34.3476 -0.140065 1.28291
upperback 5.417 1.0554 4.84453
thorax -11.613 0.517969 4.08323
lowerneck -10.9336 -1.53592 -2.74436
upperneck 10.692 -0.48861 -8.76976
head 5.01904 -0.923181 -2.32278
rclavicle 2.06736e-014 2.70347e-014
rhumerus 4.7026 -1.60302 -71.2106
rradius 67.7966
rwrist 16.1047
rhand -22.4144 10.217
rfingers 7.12502
rthumb 4.00863 -19.7251
lclavicle 2.06736e-014 2.70347e-014
lhumerus -27.9692 -1.10746 89.4335
lradius 47.0156
lwrist 8.45576
lhand 167.961 -131.147
lfingers 7.12502
lthumb -165.981 3498.36
rfemur -24.4391 -1.85483 13.5072
rtibia 64.4993
rfoot 3.95528 -17.2513
rtoes 15.9749
lfemur -32.1707 0.562605 -20.8308
ltibia 40.9614
lfoot -7.63958 -9.92552
ltoes -22.7485
4449
root -3.93558 18.3018 -1.60525 5.76231 15.1785 -718.72
lowerback 34.2064 -0.149518 1.87064
upperback 5.09589 1.25165 4.73926
thorax -11.9112 0.588292 3.57812
lowerneck -10.4488 -1.85606 -2.83245
upperneck 10.8237 -0.94165 -8.62063
head 4.9635 -1.13075 -2.28991
rclavicle 1.98785e-014 -2.06736e-014
rhumerus 3.47671 -2.14373 -71.8855
rradius 64.9897
rwrist 17.129
rhand -25.7471 11.5099
rfingers 7.12502
rthumb 0.790017 -18.4684
lclavicle 1.98785e-014 -2.06736e-014
lhumerus -28.2714 -1.26934 89.4634
lradius 47.5076
lwrist 8.45329
lhand 168.236 -131.123
lfingers 7.12502
lthumb -165.716 3498.37
rfemur -22.2762 -1.39849 13.5612
rtibia 62.5804
rfoot 3.47104 -18.5374
rtoes 17.9334
lfemur -32.7147 -0.16947 -19.7898
ltibia 41.3825
lfoot -8.58877 -8.16565
ltoes -22.3556
4450
root -3.97085 18.2955 -1.83054 5.84061 15.8384 -718.792
lowerback 34.1305 -0.13199 2.40493
upperback 4.82196 1.47234 4.69047
thorax -12.1831 0.668379 3.15222
lowerneck -9.76875 -2.15432 -2.87894
upperneck 10.8975 -1.37705 -8.56049
head 4.85766 -1.32726 -2.28475
rclavicle -1.35174e-014 1.27222e-014
rhumerus 2.54775 -2.94104 -72.648
rradius 61.7678
rwrist 18.0558
rhand -28.3473 12.9154
rfingers 7.12502
rthumb -1.72132 -17.0574
lclavicle -1.35174e-014 1.27222e-014
lhumerus -28.7003 -1.41365 89.5315
lradius 47.9539
lwrist 8.47109
lhand 168.815 -131.372
lfingers 7.12502
lthumb -165.157 3498.08
rfemur -19.8453 -1.07952 13.683
rtibia 60.44
rfoot 3.62746 -19.5357
rtoes 18.3796
lfemur -32.9951 -1.04696 -18.6166
ltibia 42.1215
lfoot -9.64162 -6.38905
ltoes -22.6865
4451
root -4.00887 18.2649 -2.04706 5.78928 16.3879 -719.018
lowerback 34.0072 -0.0505125 2.84576
upperback 4.62396 1.75833 4.80797
thorax -12.361 0.781614 2.92844
lowerneck -9.143 -2.2892 -2.7775
upperneck 11.0219 -1.56755 -8.80657
head 4.7811 -1.41997 -2.38219
rclavicle 1.74931e-014 1.74931e-014
rhumerus 2.08737 -3.92002 -73.2732
rradius 58.1255
rwrist 19.4004
rhand -29.7337 14.0659
rfingers 7.12502
rthumb -3.06028 -15.8918
lclavicle 1.74931e-014 1.74931e-014
lhumerus -28.8865 -1.18698 89.681
lradius 48.0031
lwrist 8.55553
lhand 169.171 -131.678
lfingers 7.12502
lthumb -164.815 3497.74
rfemur -17.319 -0.542385 13.9374
rtibia 58.0823
rfoot 3.81586 -20.4735
rtoes 18.4341
lfemur -33.1898 -1.55344 -17.2454
ltibia 43.1251
lfoot -10.3088 -5.17666
ltoes -22.1193
4452
root -4.04216 18.216 -2.26419 5.88856 16.8937 -718.929
lowerback 33.6921 0.0324789 3.07958
upperback 4.51626 1.93478 4.78817
thorax -12.3533 0.853016 2.71083
lowerneck -9.22872 -2.46597 -3.75324
upperneck 11.7067 -1.71568 -7.89348
head 5.0238 -1.50211 -1.9626
rclavicle -2.94201e-014 -7.95139e-015
rhumerus 2.03946 -5.49667 -74.0874
rradius 54.4184
rwrist 21.7303
rhand -30.417 14.7148
rfingers 7.12502
rthumb -3.72011 -15.2325
lclavicle -2.94201e-014 -7.95139e-015
lhumerus -28.391 -0.564316 89.7107
lradius 47.1393
lwrist 8.15139
lhand 169.356 -132.8
lfingers 7.12502
lthumb -164.637 3496.61
rfemur -14.882 0.013708 13.8227
rtibia 55.5693
rfoot 3.95718 -21.1828
rtoes 17.4429
lfemur -33.5257 -2.13409 -16.1558
ltibia 44.3702
lfoot -10.6093 -4.39641
ltoes -20.6161
4453
root -4.07132 18.1545 -2.4757 5.78581 17.4974 -718.912
lowerback 33.4002 -0.0368261 3.44034
upperback 4.49709 1.95336 4.72837
thorax -12.2385 0.848938 2.44557
lowerneck -9.3282 -2.69425 -4.52988
upperneck 12.3566 -1.93651 -7.23116
head 5.25616 -1.62567 -1.65837
rclavicle 5.40694e-014 2.22639e-014
rhumerus 2.11368 -7.30297 -75.1612
rradius 50.7803
rwrist 24.0373
rhand -30.7433 15.2933
rfingers 7.12502
rthumb -4.03521 -14.6482
lclavicle 5.40694e-014 2.22639e-014
lhumerus -28.922 -0.985218 89.7182
lradius 48.4488
lwrist 8.69184
lhand 169.413 -133.31
lfingers 7.12502
lthumb -164.582 3496.1
rfemur -12.1871 0.530116 13.8288
rtibia 53.0701
rfoot 3.63873 -21.3702
rtoes 14.6361
lfemur -33.7279 -2.62789 -15.0301
ltibia 45.9261
lfoot -10.9983 -3.87672
ltoes -21.7553
4454
root -4.10218 18.0727 -2.67771 5.25731 18.566 -719.147
lowerback 33.1494 -0.360268 3.99507
upperback 4.71785 1.7333 4.83895
thorax -11.8624 0.738509 2.35292
lowerneck -8.98092 -2.67065 -3.9215
upperneck 12.0699 -1.94678 -7.92807
head 5.09186 -1.63038 -1.96362
rclavicle 7.15625e-015 9.54166e-015
rhumerus 2.54691 -9.07426 -76.1529
rradius 47.3593
rwrist 25.5378
rhand -30.3586 15.5038
rfingers 7.12502
rthumb -3.66371 -14.4445
lclavicle 7.15625e-015 9.54166e-015
lhumerus -28.7772 -0.53261 89.6456
lradius 48.9572
lwrist 8.44288
lhand 169.539 -133.185
lfingers 7.12502
lthumb -164.461 3496.21
rfemur -9.11025 0.856647 14.3247
rtibia 50.8332
rfoot 2.28114 -21.1492
rtoes 13.3512
lfemur -33.7385 -3.70014 -13.4474
ltibia 47.8858
lfoot -11.2108 -4.19739
ltoes -21.2384
4455
root -4.13007 17.9657 -2.93527 5.99219 16.6335 -719.63
lowerback 31.9258 0.674933 3.52347
upperback 4.88142 2.78994 4.93728
thorax -11.2329 1.24391 2.30615
lowerneck -8.89325 -2.58971 -3.53407
upperneck 11.8872 -1.84465 -8.44848
head 5.01248 -1.58736 -2.1767
rclavicle -3.02153e-014 9.54166e-015
rhumerus 3.40988 -10.7263 -76.9888
rradius 44.0342
rwrist 26.0507
rhand -30.0364 15.1515
rfingers 7.12502
rthumb -3.35257 -14.8019
lclavicle -3.02153e-014 9.54166e-015
lhumerus -28.4639 0.0930479 89.6783
lradius 49.6461
lwrist 8.22607
lhand 170.007 -132.13
lfingers 7.12502
lthumb -164.01 3497.23
rfemur -8.8691 2.82807 14.2139
rtibia 48.8214
rfoot 0.337881 -20.5868
rtoes 5.58905
lfemur -34.7881 -2.53296 -11.7761
ltibia 49.9491
lfoot -11.4144 -3.66574
ltoes -22.1217
